<svg width="1440" height="190" viewBox="0 0 1440 190" fill="none" xmlns="http://www.w3.org/2000/svg">
<path fill-rule="evenodd" clip-rule="evenodd" d="M836.977 0H0V190H837.389C825.217 160.576 818.5 128.322 818.5 94.5C818.5 61.0603 825.065 29.1541 836.977 0ZM840.639 190H883.389C871.217 160.576 864.5 128.322 864.5 94.5C864.5 61.0603 871.065 29.1541 882.977 0H840.222C828.158 29.1101 821.5 61.0275 821.5 94.5C821.5 128.356 828.312 160.621 840.639 190ZM929.389 190H886.639C874.312 160.621 867.5 128.356 867.5 94.5C867.5 61.0275 874.158 29.1101 886.222 0H928.977C917.065 29.1541 910.5 61.0603 910.5 94.5C910.5 128.322 917.217 160.576 929.389 190ZM932.639 190H975.389C963.217 160.576 956.5 128.322 956.5 94.5C956.5 61.0603 963.065 29.1541 974.977 0H932.222C920.158 29.1101 913.5 61.0275 913.5 94.5C913.5 128.356 920.312 160.621 932.639 190ZM1440 190H978.639C966.312 160.621 959.5 128.356 959.5 94.5C959.5 61.0275 966.158 29.1101 978.222 0H1440V190Z" fill="white"/>
<path fill-rule="evenodd" clip-rule="evenodd" d="M1440 190H978.639C966.312 160.621 959.5 128.356 959.5 94.5C959.5 61.0275 966.158 29.1101 978.222 0H1440V190Z" fill="#9A5EF5"/>
<mask id="mask0_3010_1162" style="mask-type:alpha" maskUnits="userSpaceOnUse" x="959" y="0" width="481" height="190">
<path fill-rule="evenodd" clip-rule="evenodd" d="M1440 190H978.639C966.312 160.621 959.5 128.356 959.5 94.5C959.5 61.0275 966.158 29.1101 978.222 0H1440V190Z" fill="#9A5EF5"/>
</mask>
<g mask="url(#mask0_3010_1162)">
<circle opacity="0.4" cx="1496" cy="95.0005" r="175.314" stroke="white"/>
<circle opacity="0.4" cx="1496" cy="94.9998" r="127.872" stroke="white"/>
<circle opacity="0.25" cx="1496" cy="95" r="224.849" stroke="white"/>
<circle opacity="0.15" cx="1496" cy="95" r="269.5" stroke="white"/>
</g>
</svg>
