<svg width="26" height="26" viewBox="0 0 26 26" fill="none" xmlns="http://www.w3.org/2000/svg">
<path d="M13.945 2.22013C13.5239 1.42662 12.4761 1.42662 12.055 2.22013L9.08978 7.80846C8.88179 8.20045 8.52229 8.46795 8.11251 8.53563L2.55547 9.45348C1.62212 9.60765 1.29473 10.8963 2.02161 11.5549L6.16138 15.3056C6.54458 15.6527 6.72476 16.2004 6.63167 16.735L5.54878 22.9539C5.37759 23.937 6.32132 24.7009 7.13106 24.2346L12.3637 21.2216C12.762 20.9923 13.238 20.9923 13.6363 21.2216L18.8689 24.2346C19.6787 24.7009 20.6224 23.937 20.4512 22.9539L19.3683 16.735C19.2752 16.2004 19.4554 15.6527 19.8386 15.3056L23.9784 11.5549C24.7053 10.8963 24.3779 9.60765 23.4445 9.45348L17.8875 8.53563C17.4777 8.46795 17.1182 8.20045 16.9102 7.80846L13.945 2.22013Z" fill="#ECEAF0"/>
</svg>
