<svg width="24" height="24" viewBox="0 0 24 24" fill="none" xmlns="http://www.w3.org/2000/svg">
<path fill-rule="evenodd" clip-rule="evenodd" d="M11.9965 3.77278C16.5331 3.77278 20.2268 7.46654 20.2268 12.0031C20.2268 12.0034 20.2268 12.0036 20.2268 12.0039H11.9961V20.2334C7.45974 20.2332 3.7662 16.5395 3.7662 12.0031L3.7662 11.9965H11.9965V3.77278ZM11.9961 23.9996C5.36594 23.9994 0 18.6201 0 11.9965C0 5.37275 5.37276 0 11.9965 0C18.6203 0 23.993 5.37934 23.993 12.0031C23.993 13.944 23.5317 15.7775 22.7128 17.3999C22.6583 17.5078 22.6023 17.6146 22.5448 17.7206C20.513 21.4606 16.5503 24.0004 11.9961 24.0004V23.9996Z" fill="url(#paint0_linear_455_1726)"/>
<defs>
<linearGradient id="paint0_linear_455_1726" x1="11.9965" y1="2.2366" x2="11.9965" y2="24.0004" gradientUnits="userSpaceOnUse">
<stop stop-color="#9A5EF5"/>
<stop offset="1" stop-color="#48336B"/>
</linearGradient>
</defs>
</svg>
