<svg width="36" height="36" viewBox="0 0 36 36" xmlns="http://www.w3.org/2000/svg">
    <path fill-rule="evenodd" clip-rule="evenodd" d="M13.1809 20.5784C11.9374 19.6311 10.9437 18.5893 10.4196 17.9999C10.9437 17.4105 11.9374 16.3688 13.1809 15.4215C14.6554 14.2981 16.3659 13.3967 17.9988 13.3967C19.6318 13.3967 21.3423 14.2981 22.8168 15.4215C24.0603 16.3688 25.054 17.4105 25.5781 17.9999C25.054 18.5893 24.0603 19.6311 22.8168 20.5784C21.3423 21.7018 19.6318 22.6031 17.9988 22.6031C16.3659 22.6031 14.6554 21.7018 13.1809 20.5784ZM17.9988 11.8967C15.8643 11.8967 13.8242 13.0456 12.2718 14.2283C10.6985 15.4269 9.50746 16.7524 9.05403 17.2838C8.70139 17.6972 8.70139 18.3027 9.05403 18.716C9.50746 19.2475 10.6985 20.5729 12.2718 21.7716C13.8242 22.9542 15.8643 24.1031 17.9988 24.1031C20.1334 24.1031 22.1735 22.9542 23.7259 21.7715C25.2992 20.5729 26.4902 19.2475 26.9437 18.716C27.2963 18.3027 27.2963 17.6972 26.9437 17.2838C26.4902 16.7524 25.2992 15.4269 23.7259 14.2283C22.1735 13.0456 20.1334 11.8967 17.9988 11.8967ZM17.9988 20.1412C19.1814 20.1412 20.1401 19.1825 20.1401 17.9999C20.1401 16.8173 19.1814 15.8586 17.9988 15.8586C16.8162 15.8586 15.8576 16.8173 15.8576 17.9999C15.8576 19.1825 16.8162 20.1412 17.9988 20.1412Z" fill="#9A5EF5"/>
</svg>
