<svg width="98" height="40" viewBox="0 0 98 40" fill="none" xmlns="http://www.w3.org/2000/svg">
<path fill-rule="evenodd" clip-rule="evenodd" d="M96.9064 3.35151C95.9387 1.69341 90.3502 2.92895 82.5585 6.17557C76.318 -0.32786 66.1792 -2.01824 57.9826 2.66076C49.7878 7.34147 46.1982 16.8726 48.772 25.4686C42.0339 30.5193 38.1578 34.6891 39.1256 36.3472C40.0933 38.0053 45.6818 36.7698 53.4734 33.5232C59.7139 40.025 69.8528 41.717 78.0493 37.0363C86.2442 32.3556 89.8337 22.8245 87.2599 14.2285C93.998 9.1778 97.8758 5.00791 96.9081 3.34981L96.9064 3.35151ZM49.6659 27.8768C46.8623 30.1493 45.3763 31.8498 45.783 32.5474C46.1896 33.2449 48.422 32.8223 51.8125 31.5562C51.3955 30.9894 51.0026 30.3954 50.6388 29.7742C50.2768 29.1514 49.9542 28.5184 49.6659 27.8768ZM51.5362 26.4241C51.8433 27.1759 52.2037 27.9159 52.6258 28.6389V28.6372C53.0479 29.3584 53.5163 30.0373 54.0207 30.6771L55.7331 32.5542C57.9174 34.623 60.5701 36.074 63.4166 36.8292C67.8126 37.9918 72.6479 37.5013 76.9014 35.0727C81.155 32.6441 84.0033 28.7475 85.1821 24.3994L85.1804 24.4011C85.9422 21.5839 85.9971 18.5867 85.2782 15.6812L84.4957 13.273C84.1869 12.5211 83.8283 11.7812 83.4062 11.0582C82.9841 10.3369 82.5157 9.6581 82.0112 9.01827C81.481 8.34621 80.9079 7.72166 80.2988 7.14463C78.1145 5.07582 75.4618 3.62473 72.6153 2.86951C68.2176 1.70697 63.384 2.19746 59.1305 4.62606C54.8769 7.05467 52.0286 10.9513 50.8499 15.2993C50.088 18.1166 50.0331 21.1138 50.752 24.0193C50.9528 24.8305 51.2136 25.6332 51.5362 26.4241ZM85.3948 9.92792C85.7569 10.5491 86.0794 11.1821 86.3677 11.8236C89.1714 9.55284 90.6573 7.85061 90.2507 7.15478C89.844 6.45726 87.6117 6.87986 84.2212 8.14592C84.6381 8.71277 85.0328 9.30676 85.3948 9.92792Z" fill="#BBFF85"/>
<path d="M73.2162 15.9495C73.6151 15.2052 73.8254 14.3725 73.8284 13.5259C73.7662 12.0268 73.1199 10.6135 72.0309 9.59502C70.9419 8.57655 69.4988 8.03567 68.0168 8.0906C66.5348 8.03567 65.0917 8.57655 64.0027 9.59502C62.9137 10.6135 62.2674 12.0267 62.2052 13.5259C62.2083 14.3725 62.4186 15.2052 62.8174 15.9495C61.3842 16.036 60.0335 16.6567 59.0261 17.6918C58.0187 18.7269 57.4262 20.103 57.3628 21.5543C57.2995 23.0056 57.7699 24.4291 58.6831 25.55C59.5964 26.671 60.8878 27.4097 62.3079 27.6237C63.1411 27.7459 63.9907 27.6816 64.7967 27.4354C65.6026 27.1891 66.3454 26.767 66.9726 26.1987C66.7857 28.5273 66.1551 29.6514 64.1424 29.6514L62.2052 29.6514C61.9483 29.6514 61.7019 29.7547 61.5203 29.9384C61.3386 30.1222 61.2366 30.3715 61.2366 30.6314C61.2366 30.8914 61.3386 31.1406 61.5203 31.3244C61.7019 31.5082 61.9483 31.6115 62.2052 31.6115L73.8284 31.6115C74.0853 31.6115 74.3317 31.5082 74.5133 31.3244C74.695 31.1406 74.797 30.8914 74.797 30.6314C74.797 30.3715 74.695 30.1222 74.5133 29.9384C74.3317 29.7547 74.0853 29.6514 73.8284 29.6514L71.8912 29.6514C69.8784 29.6514 69.2479 28.5273 69.0609 26.1987C69.6882 26.767 70.431 27.1891 71.237 27.4353C72.043 27.6815 72.8925 27.7458 73.7257 27.6237C75.1458 27.4097 76.4372 26.671 77.3505 25.5501C78.2637 24.4291 78.7341 23.0056 78.6708 21.5543C78.6074 20.103 78.0149 18.7269 77.0075 17.6918C76.0001 16.6567 74.6494 16.036 73.2162 15.9495ZM67.9887 29.6514C67.9974 29.6357 68.0081 29.621 68.0168 29.6053C68.0255 29.621 68.0362 29.6357 68.0449 29.6514L67.9887 29.6514Z" fill="#BBFF85"/>
<path d="M22.2274 21.3115H24.2118V31.1298H22.2274V21.3115ZM23.6491 25.1322H26.0333V26.7464H23.6491V25.1322ZM18.4067 22.3333H20.5096C20.5096 26.0652 18.229 28.6271 14.1418 29.8118L13.3125 28.2421C16.6741 27.3239 18.4067 25.4876 18.4067 23.3107V22.3333ZM13.9049 22.3333H19.473V23.9179H13.9049V22.3333ZM15.3413 33.2178H24.6709V34.7876H15.3413V33.2178ZM15.3413 30.1376H17.3257V33.9138H15.3413V30.1376Z" fill="#9A5EF5"/>
<path d="M9.21109 21.3263H11.1955V31.1742H9.21109V21.3263ZM2.05843 33.2178H11.5361V34.7875H2.05843V33.2178ZM2.05843 30.182H4.028V33.8546H2.05843V30.182ZM3.73183 22.1852C5.83468 22.1852 7.44884 23.6365 7.44884 25.6653C7.44884 27.6793 5.83468 29.1454 3.73183 29.1454C1.62897 29.1454 0 27.6793 0 25.6653C0 23.6365 1.62897 22.1852 3.73183 22.1852ZM3.73183 23.8882C2.71002 23.8882 1.92515 24.5398 1.92515 25.6653C1.92515 26.7759 2.71002 27.4275 3.73183 27.4275C4.73883 27.4275 5.52369 26.7759 5.52369 25.6653C5.52369 24.5398 4.73883 23.8882 3.73183 23.8882Z" fill="#9A5EF5"/>
<path d="M13.623 10.579H26.0328V12.1487H13.623V10.579ZM15.1187 7.89856H24.6704V9.4831H15.1187V7.89856ZM15.1187 4.31482H24.552V5.86975H17.0883V8.4761H15.1187V4.31482ZM15.0891 15.7028H24.7593V17.2874H15.0891V15.7028ZM15.0891 13.1853H17.0439V16.1026H15.0891V13.1853Z" fill="#9A5EF5"/>
<path d="M0 14.3409H12.4098V15.9403H0V14.3409ZM5.1979 11.3051H7.16747V14.7111H5.1979V11.3051ZM1.28837 4.81885H11.0474V11.5569H1.28837V4.81885ZM9.12224 6.38858H3.22833V10.0019H9.12224V6.38858Z" fill="#9A5EF5"/>
</svg>
