<svg width="40" height="40" viewBox="0 0 40 40" fill="none" xmlns="http://www.w3.org/2000/svg">
<path d="M37.434 22.2378C37.0704 21.5094 36.6159 20.781 36.2523 19.9615C37.2522 18.2315 38.0703 16.5015 38.7974 14.6805C40.7063 9.30834 40.3427 4.9378 37.7067 2.29726C35.0707 -0.34327 30.6168 -0.707481 25.2539 1.20463C23.4359 1.842 21.618 2.75253 19.9819 3.75411C12.801 -0.525376 5.9838 -1.34485 2.34794 2.38832C-1.28792 6.12148 -0.560744 12.7683 3.71139 19.9615C3.34781 20.5989 2.98422 21.1452 2.71153 21.7826C-0.651643 28.3384 -1.01523 34.2568 2.34794 37.6258C4.07497 39.2647 6.34738 40.0842 8.6198 39.9932C11.8921 39.9021 15.0735 38.9916 17.9821 37.3526C19.5274 36.5331 20.9817 35.7137 22.3452 34.7121C24.7994 32.9821 26.9809 31.161 29.0715 29.0668C30.1623 27.9742 31.253 26.7905 32.2529 25.6068C32.7074 25.1515 33.071 24.6052 33.4345 24.0589C33.7981 24.7873 34.1617 25.6068 34.4344 26.4263C34.4344 26.5173 34.5253 26.6084 34.5253 26.7905C35.0707 28.2473 35.4343 29.7952 35.4343 31.3431C35.5252 32.4358 35.1616 33.6195 34.4344 34.4389C33.071 35.8047 30.2532 35.8047 26.7082 34.53C26.6173 34.53 26.4355 34.4389 26.3446 34.4389C25.5265 35.0763 24.7085 35.7137 23.9813 36.26C23.345 36.7153 22.7997 37.0795 22.1634 37.4437C23.1632 37.99 24.1631 38.3542 25.2539 38.8095C27.1627 39.5379 29.2533 39.9932 31.3439 39.9932C32.5256 39.9932 33.7072 39.8111 34.8889 39.4468C35.8887 39.0826 36.8886 38.4453 37.6158 37.7168C40.2518 35.0763 40.7063 30.6147 38.7065 25.3336C38.343 24.241 37.9794 23.2394 37.434 22.2378ZM26.7991 5.39306C30.2532 4.11832 33.1619 4.11832 34.5253 5.48412C35.8887 6.84991 35.8888 9.67255 34.6162 13.2236C34.2526 14.1341 33.889 15.0447 33.4345 15.8641C32.0711 14.1341 30.6168 12.4952 29.0715 10.8562C28.0716 9.85465 26.9809 8.85307 25.8901 7.94254C25.2539 7.39623 24.7085 6.94096 24.0722 6.4857C24.9812 6.12149 25.8901 5.66622 26.7991 5.39306ZM5.43842 34.53C3.98408 33.0731 4.07498 29.9773 5.62022 26.1531C5.89291 25.5158 6.1656 24.8784 6.52918 24.15C6.98366 24.7873 7.52904 25.4247 8.07442 25.971C8.98338 26.9726 9.89235 28.0652 10.8922 29.0668C12.4375 30.6147 14.0736 32.0716 15.8006 33.4374C15.0735 33.8016 14.4372 34.0747 13.71 34.3479C9.98325 35.8958 6.89276 35.9868 5.43842 34.53ZM25.8901 25.971C24.0722 27.7921 22.0725 29.5221 19.891 30.9789C16.2551 28.4294 13.0737 25.4247 10.3468 21.8736C9.80145 21.2363 9.34697 20.5989 8.98338 19.9615C10.4377 17.8673 12.1648 15.8641 13.9827 13.952C15.3461 12.5862 16.7096 11.4026 18.2548 10.2189C16.8914 9.30834 15.5279 8.48886 14.0736 7.85149C12.9828 8.76202 11.8921 9.7636 10.8922 10.7652C9.34697 12.3131 7.89263 13.952 6.52918 15.682C4.16587 10.9473 3.80228 7.03201 5.43842 5.30201C6.25649 4.57359 7.43814 4.20937 8.5289 4.30043C12.7101 4.30043 19.6183 7.57833 25.8901 13.861C27.7081 15.682 29.4351 17.6852 30.8894 19.7794C30.5259 20.3257 30.1623 20.8721 29.7078 21.4184C28.5261 23.1484 27.2536 24.6052 25.8901 25.971Z" fill="url(#paint0_linear_389_1811)"/>
<path d="M21.0202 24.1811C23.2996 23.8105 24.8476 21.659 24.4777 19.3757C24.1077 17.0923 21.96 15.5417 19.6805 15.9123C17.4011 16.2828 15.8531 18.4343 16.2231 20.7177C16.593 23.001 18.7407 24.5516 21.0202 24.1811Z" fill="#7650F5"/>
<defs>
<linearGradient id="paint0_linear_389_1811" x1="0" y1="20" x2="40" y2="20" gradientUnits="userSpaceOnUse">
<stop stop-color="white"/>
<stop offset="1" stop-color="#999999"/>
</linearGradient>
</defs>
</svg>
