<svg width="20" height="20" viewBox="0 0 20 20" fill="none" xmlns="http://www.w3.org/2000/svg">
<path fill-rule="evenodd" clip-rule="evenodd" d="M12.9566 1.79102C12.5556 1.55306 12.0263 1.66706 11.7743 2.04564L10.0002 4.71056L8.22619 2.04556C7.97417 1.66697 7.44484 1.55297 7.04388 1.79092C6.64292 2.02888 6.52218 2.52868 6.77419 2.90727L8.1541 4.98022H4.16667C3.24619 4.98022 2.5 5.72752 2.5 6.64936V8.3185C2.5 8.93631 2.83517 9.47573 3.33333 9.76433V9.98763V15.8296C3.33333 17.2124 4.45262 18.3333 5.83333 18.3333H14.1667C15.5474 18.3333 16.6667 17.2124 16.6667 15.8296V9.98763V9.76433C17.1648 9.47573 17.5 8.93631 17.5 8.3185V6.64936C17.5 5.72752 16.7538 4.98022 15.8333 4.98022H11.8463L13.2262 2.90738C13.4783 2.52879 13.3575 2.02899 12.9566 1.79102ZM4.16667 8.3185H5H5.83333H9.16667V6.64936H5.83333H4.16667V8.3185ZM10.8333 6.64936V8.3185H14.1667H15H15.8333V6.64936H14.1667H10.8333ZM9.16667 9.98763H6.66667H5V11.6568V15.8296C5 16.2905 5.3731 16.6642 5.83333 16.6642H9.16667V9.98763ZM10.8333 16.6642V9.98763H13.3333H15V11.6568V15.8296C15 16.2905 14.6269 16.6642 14.1667 16.6642H10.8333Z" fill="#4C4E64"/>
</svg>
