<svg width="40" height="40" viewBox="0 0 40 40" fill="none" xmlns="http://www.w3.org/2000/svg">
<circle cx="20" cy="20" r="19.5" stroke="#6202FE"/>
<path d="M24.0078 22.6821C24.7459 21.6741 25.1874 20.436 25.1874 19.0937C25.1874 15.7338 22.4537 13 19.0937 13C15.7337 13 13 15.7338 13 19.0937C13 22.4537 15.7338 25.1875 19.0937 25.1875C20.436 25.1875 21.6742 24.7459 22.6822 24.0078L26.6743 27.9999L28 26.6742C28 26.6742 24.0078 22.6821 24.0078 22.6821ZM19.0937 23.3125C16.7674 23.3125 14.875 21.4201 14.875 19.0937C14.875 16.7674 16.7674 14.875 19.0937 14.875C21.4201 14.875 23.3125 16.7674 23.3125 19.0937C23.3125 21.4201 21.4201 23.3125 19.0937 23.3125Z" fill="white"/>
</svg>
