<svg width="20" height="20" viewBox="0 0 20 20" fill="none" xmlns="http://www.w3.org/2000/svg">
<g clip-path="url(#clip0_455_1659)">
<path d="M3.33333 7.5H10.8333C11.7538 7.5 12.5 8.24619 12.5 9.16667V16.6667C12.5 17.5871 11.7538 18.3333 10.8333 18.3333H3.33333C2.41286 18.3333 1.66667 17.5871 1.66667 16.6667V9.16667C1.66667 8.24619 2.41286 7.5 3.33333 7.5Z" stroke="#0F0D15" stroke-width="1.5" stroke-linecap="round" stroke-linejoin="round"/>
<path d="M15.834 12.5001H16.6673C17.1093 12.5001 17.5333 12.3245 17.8458 12.0119C18.1584 11.6994 18.334 11.2754 18.334 10.8334V3.33341C18.334 2.89139 18.1584 2.46746 17.8458 2.1549C17.5333 1.84234 17.1093 1.66675 16.6673 1.66675H9.16732C8.72529 1.66675 8.30137 1.84234 7.98881 2.1549C7.67625 2.46746 7.50065 2.89139 7.50065 3.33341V4.16675" stroke="#0F0D15" stroke-width="1.5" stroke-linecap="round" stroke-linejoin="round"/>
</g>
<defs>
<clipPath id="clip0_455_1659">
<rect width="20" height="20" fill="white" transform="matrix(-1 0 0 1 20 0)"/>
</clipPath>
</defs>
</svg>
