<svg width="44" height="44" viewBox="0 0 44 44" fill="none" xmlns="http://www.w3.org/2000/svg">
<circle cx="22" cy="22" r="22" fill="white"/>
<path d="M26.0078 24.6821C26.7459 23.6741 27.1874 22.436 27.1874 21.0937C27.1874 17.7338 24.4537 15 21.0937 15C17.7337 15 15 17.7338 15 21.0937C15 24.4537 17.7338 27.1875 21.0937 27.1875C22.436 27.1875 23.6742 26.7459 24.6822 26.0078L28.6743 29.9999L30 28.6742C30 28.6742 26.0078 24.6821 26.0078 24.6821ZM21.0937 25.3125C18.7674 25.3125 16.875 23.4201 16.875 21.0937C16.875 18.7674 18.7674 16.875 21.0937 16.875C23.4201 16.875 25.3125 18.7674 25.3125 21.0937C25.3125 23.4201 23.4201 25.3125 21.0937 25.3125Z" fill="#6202FE"/>
</svg>
