<svg width="60" height="60" viewBox="0 0 60 60" fill="none" xmlns="http://www.w3.org/2000/svg">
<g clip-path="url(#clip0_455_1404)">
<path d="M30 0C13.4314 0 0 13.4314 0 30C0 46.5686 13.4314 60 30 60C46.5686 60 60 46.5686 60 30C60 13.4314 46.5686 0 30 0Z" fill="#EAEEFD"/>
<path d="M48.6328 24.0234V49.8047C48.6328 50.1284 48.3704 50.3906 48.0469 50.3906H7.99758C3.03527 45.0386 0 37.8743 0 30C0 27.7455 0.250547 25.5498 0.721875 23.4375H48.0469C48.3704 23.4375 48.6328 23.6998 48.6328 24.0234Z" fill="#EAEEFD"/>
<path d="M53.3203 45.7031H4.43496C1.62316 41.1353 0 35.7574 0 30C0 26.0213 0.776367 22.2244 2.18297 18.75H53.1482C53.4113 19.1729 53.664 19.6028 53.9063 20.0395V45.1172C53.9063 45.4409 53.6439 45.7031 53.3203 45.7031Z" fill="white"/>
<path d="M0 30.2191C0 35.8584 1.10808 41.1259 3.0276 45.6H16.8L9.99248 19.2H1.49024C0.53 22.6031 0 26.322 0 30.2191Z" fill="#0B1324"/>
<path d="M49.2001 36.2V37.8C49.2001 37.9104 49.0701 38 48.9096 38H21.8906C21.7301 38 21.6001 37.9104 21.6001 37.8V36.2C21.6001 36.0896 21.7301 36 21.8906 36H48.9096C49.0701 36 49.2001 36.0896 49.2001 36.2ZM48.9096 40H30.6064C30.4459 40 30.3159 40.0896 30.3159 40.2V41.8C30.3159 41.9104 30.4459 42 30.6064 42H48.9096C49.0701 42 49.2001 41.9104 49.2001 41.8V40.2C49.2001 40.0896 49.0701 40 48.9096 40Z" fill="#C9C9C9"/>
<path d="M31.5402 5.68634C32.1278 4.23837 34.2827 4.66704 34.2713 6.22962C34.2622 7.5024 35.8049 8.14142 36.6984 7.23497C37.7954 6.12204 39.6221 7.34267 39.0136 8.78197C38.5181 9.95431 39.699 11.1352 40.8713 10.6396C42.3106 10.0312 43.5312 11.858 42.4183 12.9549C41.5118 13.8484 42.1509 15.3912 43.4236 15.3821C44.9862 15.3708 45.4149 17.5257 43.9669 18.1131C42.7875 18.5917 42.7875 20.2617 43.9669 20.7402C45.4149 21.3278 44.9862 23.4827 43.4236 23.4713C42.1509 23.4622 41.5118 25.0049 42.4183 25.8985C43.5312 26.9954 42.3106 28.8222 40.8713 28.2138C39.699 27.7182 38.5181 28.8991 39.0136 30.0714C39.6221 31.5107 37.7952 32.7313 36.6984 31.6184C35.8049 30.712 34.262 31.351 34.2713 32.6238C34.2825 34.1863 32.1277 34.615 31.5402 33.167C31.0616 31.9877 29.3917 31.9877 28.9131 33.167C28.3256 34.615 26.1707 34.1863 26.1821 32.6238C26.1912 31.351 24.6484 30.712 23.755 31.6184C22.658 32.7313 20.8313 31.5107 21.4397 30.0714C21.9353 28.8991 20.7544 27.7182 19.5821 28.2138C18.1428 28.8222 16.9222 26.9954 18.0351 25.8985C18.9415 25.0049 18.3025 23.4622 17.0297 23.4713C15.4672 23.4825 15.0385 21.3277 16.4865 20.7402C17.6658 20.2617 17.6658 18.5917 16.4865 18.1131C15.0385 17.5256 15.4672 15.3707 17.0297 15.3821C18.3025 15.3912 18.9415 13.8484 18.0351 12.9549C16.9222 11.858 18.1428 10.0312 19.5821 10.6396C20.7544 11.1352 21.9353 9.95431 21.4397 8.78197C20.8313 7.34267 22.6581 6.12204 23.755 7.23497C24.6486 8.14142 26.1913 7.5024 26.1821 6.22962C26.1708 4.66704 28.3257 4.23837 28.9131 5.68634C29.3917 6.86572 31.0616 6.86572 31.5402 5.68634Z" fill="#1F4AD8"/>
<path d="M28.9341 33.1207C28.9272 33.1362 28.9197 33.1511 28.9133 33.167C28.3257 34.6148 26.1708 34.1863 26.1822 32.6237C26.1913 31.3509 24.6486 30.7119 23.755 31.6184C22.6581 32.7313 20.8313 31.5107 21.4397 30.0713C21.9353 28.8989 20.7544 27.718 19.5821 28.2136C18.1428 28.822 16.9222 26.9953 18.0351 25.8983C18.9415 25.0048 18.3025 23.462 17.0297 23.4713C15.4672 23.4826 15.0385 21.3277 16.4865 20.7402C17.6658 20.2616 17.6658 18.5917 16.4865 18.1131C15.0385 17.5255 15.4672 15.3707 17.0297 15.382C18.3025 15.3912 18.9415 13.8484 18.0351 12.9548C16.9222 11.858 18.1428 10.0311 19.5821 10.6396C20.7544 11.1352 21.9353 9.95438 21.4397 8.78192C20.8313 7.34262 22.6581 6.12199 23.755 7.23492C24.6486 8.14137 26.1913 7.50235 26.1822 6.22957C26.1709 4.66699 28.3258 4.23844 28.9133 5.68629C28.9197 5.70223 28.9272 5.71711 28.9341 5.73258C24.6361 8.76422 21.8286 13.7673 21.8286 19.4266C21.8286 25.086 24.6363 30.0892 28.9341 33.1207Z" fill="#1F4AD8"/>
<path d="M37.0045 14.5931L25.5481 26.0496C25.4777 26.1199 25.3637 26.1199 25.2933 26.0496L24.2741 25.0304C24.2037 24.9601 24.2037 24.846 24.2741 24.7756L35.7305 13.3191C35.8009 13.2487 35.9149 13.2487 35.9853 13.3191L37.0045 14.3383C37.0749 14.4087 37.0749 14.5227 37.0045 14.5931ZM23.8828 16.0809C23.8828 14.3395 25.2945 12.9279 27.0358 12.9279C28.7772 12.9279 30.1889 14.3395 30.1889 16.0809C30.1889 17.8223 28.7772 19.2339 27.0358 19.2339C25.2945 19.2339 23.8828 17.8223 23.8828 16.0809ZM25.6845 16.0809C25.6845 16.8272 26.2896 17.4322 27.0358 17.4322C27.7821 17.4322 28.3871 16.8272 28.3871 16.0809C28.3871 15.3346 27.7821 14.7296 27.0358 14.7296C26.2896 14.7296 25.6845 15.3346 25.6845 16.0809ZM37.3958 23.2878C37.3958 25.0292 35.9841 26.4408 34.2428 26.4408C32.5014 26.4408 31.0897 25.0292 31.0897 23.2878C31.0897 21.5464 32.5014 20.1348 34.2428 20.1348C35.9841 20.1348 37.3958 21.5464 37.3958 23.2878ZM35.5941 23.2878C35.5941 22.5415 34.989 21.9365 34.2428 21.9365C33.4965 21.9365 32.8915 22.5415 32.8915 23.2878C32.8915 24.0341 33.4965 24.6391 34.2428 24.6391C34.989 24.6391 35.5941 24.0341 35.5941 23.2878Z" fill="#FFF5F5"/>
</g>
<defs>
<clipPath id="clip0_455_1404">
<rect width="60" height="60" fill="white"/>
</clipPath>
</defs>
</svg>
